<svg height='300px' width='300px'  fill="#000000" xmlns="http://www.w3.org/2000/svg" data-name="Layer 1" viewBox="0 0 128 128" x="0px" y="0px"><title>360</title><path d="M50.3,49.083a3.7,3.7,0,0,0,2.909-3.6c0-2.474-2.223-4.305-5.932-4.305A7.712,7.712,0,0,0,41.1,43.977l2.2,2.381a5.059,5.059,0,0,1,3.573-1.672c1.42,0,2.359.573,2.359,1.535,0,.917-.849,1.443-2.429,1.421H44.944v3.3l1.854-.023c1.992,0,2.749.5,2.749,1.488,0,.916-.871,1.58-2.451,1.58a5.746,5.746,0,0,1-4.077-1.717l-2.244,2.587A8.534,8.534,0,0,0,47.3,57.489c3.8,0,6.253-1.97,6.253-4.742A3.826,3.826,0,0,0,50.3,49.083Z"></path><path d="M65.236,46.908a5.969,5.969,0,0,0-3.642,1.236c.344-2.221,1.535-3.55,3.39-3.55A4.674,4.674,0,0,1,68.1,45.786l1.809-2.954a7.839,7.839,0,0,0-4.946-1.649c-4.6,0-7.512,3.436-7.512,8.427,0,4.627,2.221,7.855,6.916,7.855,3.5,0,6.183-2.2,6.183-5.518A4.98,4.98,0,0,0,65.236,46.908Zm-1.1,7.237c-1.6,0-2.29-.847-2.543-2.588a2.647,2.647,0,0,1,2.451-1.512,2.231,2.231,0,0,1,2.5,2.062A2.164,2.164,0,0,1,64.138,54.145Z"></path><path d="M81.911,41.183c-4.238,0-7.238,3.366-7.238,8.129,0,4.787,3,8.153,7.238,8.153,4.259,0,7.237-3.366,7.237-8.153C89.148,44.549,86.17,41.183,81.911,41.183Zm0,12.733c-1.878,0-3.207-1.923-3.207-4.6s1.329-4.579,3.207-4.579c1.9,0,3.228,1.9,3.228,4.579S83.812,53.915,81.911,53.915Z"></path><path d="M64.962,24.936H63.038c-22.591,0-56.744,9.083-56.744,22.774V86.546c0,10.778,15.213,16.519,26.194,16.519a2,2,0,0,0,2-2V73.151A95.477,95.477,0,0,1,64,68.476a100.825,100.825,0,0,1,29.512,4.68v27.909a2,2,0,0,0,2,2c10.981,0,26.194-5.74,26.194-16.519V47.71C121.706,34.019,87.553,24.936,64.962,24.936ZM30.488,99c-9.019-.614-20.194-5.237-20.194-12.449V56.411c.292.3.6.592.925.881.073.065.149.128.223.193q.573.5,1.2.975c.057.043.11.087.168.129.456.335.939.657,1.439.97.111.069.222.138.335.206.508.307,1.034.605,1.585.888.08.041.164.079.245.119q.781.391,1.617.745c.1.041.192.085.291.125.6.247,1.225.477,1.866.693.138.047.277.091.416.136.66.213,1.335.414,2.035.591.059.015.121.027.181.042.669.166,1.359.313,2.063.444.136.026.27.053.408.077q1.1.194,2.258.327c.156.018.314.033.471.049.806.084,1.624.153,2.466.191V99ZM64,64.476a100.83,100.83,0,0,0-29.512,4.457V62.24a2,2,0,0,0-2-2c-10.861,0-17.915-4.094-20.763-8.356a7.647,7.647,0,0,1-1.431-4.174c0-9.492,30.2-18.774,52.744-18.774h1.924c22.543,0,52.744,9.282,52.744,18.774,0,5.253-7.713,12.53-22.194,12.53a2,2,0,0,0-2,2v6.7A106.752,106.752,0,0,0,64,64.476Zm53.706,22.07c0,7.212-11.176,11.835-20.194,12.449V64.2h0c.84-.038,1.655-.107,2.458-.19.159-.016.319-.032.476-.05q1.153-.134,2.253-.326c.14-.025.277-.052.415-.079.7-.131,1.386-.277,2.051-.442.062-.016.127-.029.189-.044.7-.177,1.371-.377,2.029-.59.142-.046.283-.091.423-.139.639-.216,1.261-.445,1.86-.691.1-.042.2-.086.3-.128q.831-.352,1.608-.741c.083-.041.169-.08.251-.122.549-.282,1.074-.579,1.581-.885.114-.069.227-.139.339-.209.5-.313.981-.634,1.436-.968.059-.043.113-.088.171-.132q.631-.473,1.2-.972c.075-.065.152-.128.225-.194.322-.289.633-.581.924-.881Z"></path></svg>